HIERARCHY
ROOT Hips
{
	OFFSET 0.000000 0.000000 0.000000
	CHANNELS 6 Xposition Yposition Zposition Zrotation Yrotation Xrotation 
	JOINT LHipJoint
	{
		OFFSET 0.000000 0.000000 0.000000
		CHANNELS 3 Zrotation Yrotation Xrotation
		JOINT LeftUpLeg
		{
			OFFSET 1.363060 -1.794630 0.839290
			CHANNELS 3 Zrotation Yrotation Xrotation
			JOINT LeftLeg
			{
				OFFSET 2.448110 -6.726130 0.000000
				CHANNELS 3 Zrotation Yrotation Xrotation
				JOINT LeftFoot
				{
					OFFSET 2.562200 -7.039590 0.000000
					CHANNELS 3 Zrotation Yrotation Xrotation
					JOINT LeftToeBase
					{
						OFFSET 0.157640 -0.433110 2.322550
						CHANNELS 3 Zrotation Yrotation Xrotation
						End Site
						{
							OFFSET 0.000000 0.000000 0.000000
						}
					}
				}
			}
		}
	}
	JOINT RHipJoint
	{
		OFFSET 0.000000 0.000000 0.000000
		CHANNELS 3 Zrotation Yrotation Xrotation
		JOINT RightUpLeg
		{
			OFFSET -1.305520 -1.794630 0.839290
			CHANNELS 3 Zrotation Yrotation Xrotation
			JOINT RightLeg
			{
				OFFSET -2.542530 -6.985550 0.000000
				CHANNELS 3 Zrotation Yrotation Xrotation
				JOINT RightFoot
				{
					OFFSET -2.568260 -7.056230 0.000000
					CHANNELS 3 Zrotation Yrotation Xrotation
					JOINT RightToeBase
					{
						OFFSET -0.164730 -0.452590 2.363150
						CHANNELS 3 Zrotation Yrotation Xrotation
						End Site
						{
							OFFSET 0.000000 0.000000 0.000000
						}
					}
				}
			}
		}
	}
	JOINT LowerBack
	{
		OFFSET 0.000000 0.000000 0.000000
		CHANNELS 3 Zrotation Yrotation Xrotation
		JOINT Spine
		{
			OFFSET 0.028270 2.035590 -0.193380
			CHANNELS 3 Zrotation Yrotation Xrotation
			JOINT Spine1
			{
				OFFSET 0.056720 2.048850 -0.042750
				CHANNELS 3 Zrotation Yrotation Xrotation
				JOINT Neck
				{
					OFFSET 0.000000 0.000000 0.000000
					CHANNELS 3 Zrotation Yrotation Xrotation
					JOINT Neck1
					{
						OFFSET -0.054170 1.746240 0.172020
						CHANNELS 3 Zrotation Yrotation Xrotation
						JOINT Head
						{
							OFFSET 0.104070 1.761360 -0.123970
							CHANNELS 3 Zrotation Yrotation Xrotation
							End Site
							{
								OFFSET 0.000000 0.000000 0.000000
							}
						}
					}
				}
				JOINT LeftShoulder
				{
					OFFSET 0.000000 0.000000 0.000000
					CHANNELS 3 Zrotation Yrotation Xrotation
					JOINT LeftArm
					{
						OFFSET 3.362410 1.200890 -0.311210
						CHANNELS 3 Zrotation Yrotation Xrotation
						JOINT LeftForeArm
						{
							OFFSET 4.983000 -0.000000 -0.000000
							CHANNELS 3 Zrotation Yrotation Xrotation
							JOINT LeftHand
							{
								OFFSET 3.483560 -0.000000 -0.000000
								CHANNELS 3 Zrotation Yrotation Xrotation
								JOINT LeftFingerBase
								{
									OFFSET 0.000000 0.000000 0.000000
									CHANNELS 3 Zrotation Yrotation Xrotation
									JOINT LeftHandIndex1
									{
										OFFSET 0.715260 -0.000000 -0.000000
										CHANNELS 3 Zrotation Yrotation Xrotation
										End Site
										{
											OFFSET 0.000000 0.000000 0.000000
										}
									}
								}
								JOINT LThumb
								{
									OFFSET 0.000000 0.000000 0.000000
									CHANNELS 3 Zrotation Yrotation Xrotation
									End Site
									{
										OFFSET 0.000000 0.000000 0.000000
									}
								}
							}
						}
					}
				}
				JOINT RightShoulder
				{
					OFFSET 0.000000 0.000000 0.000000
					CHANNELS 3 Zrotation Yrotation Xrotation
					JOINT RightArm
					{
						OFFSET -3.136600 1.374050 -0.404650
						CHANNELS 3 Zrotation Yrotation Xrotation
						JOINT RightForeArm
						{
							OFFSET -5.241900 -0.000000 -0.000000
							CHANNELS 3 Zrotation Yrotation Xrotation
							JOINT RightHand
							{
								OFFSET -3.444170 -0.000000 -0.000000
								CHANNELS 3 Zrotation Yrotation Xrotation
								JOINT RightFingerBase
								{
									OFFSET 0.000000 0.000000 0.000000
									CHANNELS 3 Zrotation Yrotation Xrotation
									JOINT RightHandIndex1
									{
										OFFSET -0.622530 -0.000000 -0.000000
										CHANNELS 3 Zrotation Yrotation Xrotation
										End Site
										{
											OFFSET 0.000000 0.000000 0.000000
										}
									}
								}
								JOINT RThumb
								{
									OFFSET 0.000000 0.000000 0.000000
									CHANNELS 3 Zrotation Yrotation Xrotation
									End Site
									{
										OFFSET 0.000000 0.000000 0.000000
									}
								}
							}
						}
					}
				}
			}
		}
	}
}
MOTION
Frames: 4
Frame Time: 0.008333
2.376461 16.326295 0.486758 169.104927 -60.504810 -152.112624 -10.253951 1.340991 -2.587319 -4.357898 26.832243 -21.575985 -1.836093 0.160983 20.552995 3.983000 29.630039 2.571963 5.996900 -0.000000 -61.924100 11.488844 0.709103 5.791315 -12.447684 5.453291 -46.062311 -0.113667 -2.488129 40.468759 -0.410221 0.502556 -6.147566 -0.068500 0.000000 -80.264800 -4.250413 -2.056034 -4.199700 -1.212785 -1.843318 -3.933178 -5.271278 -1.835356 -1.456643 10.344941 -5.440982 -4.265300 -2.430661 -0.223493 0.866172 0.000000 0.000000 0.000000 6.151438 8.033731 2.889162 -48.858372 19.715740 -14.791900 -178.982522 -63.838601 179.960075 7.489817 -15.242425 -1.074764 -0.175912 0.736419 -0.000000 0.000000 0.000000 0.000000 0.000000 0.000000 0.000000 4.123550 0.848258 -3.755973 64.659887 53.662857 7.710863 -179.011086 56.920343 179.671117 -26.963574 17.785036 -4.708253 0.645292 -1.240020 -0.000000 0.000000 0.000000 0.000000 0.000000 0.000000 0.000000 
2.320268 16.382228 0.493137 171.650107 -57.433633 -153.564953 -10.466852 1.404399 -2.647201 -4.195595 27.978589 -21.089627 -1.882117 0.084409 19.102992 4.082737 30.636338 3.462944 6.752600 0.000000 -61.468400 11.133571 0.472767 6.437144 -12.249661 7.730227 -47.125992 -0.078716 -2.257945 38.252761 -0.200923 1.427908 -4.680321 -0.011700 -0.000000 -80.502400 -3.243809 -1.883241 -4.768043 -1.020045 -1.780391 -3.945190 -5.245748 -1.776919 -0.889948 10.683149 -6.062977 -5.107176 -2.269939 -0.202160 0.646126 0.000000 0.000000 0.000000 6.306193 9.456346 3.059674 -47.600794 23.148122 -14.083511 -178.888704 -65.350559 179.975920 6.188585 -15.203974 -0.883048 -0.154727 0.677704 0.000000 0.000000 0.000000 0.000000 0.000000 0.000000 0.000000 4.367755 0.530315 -3.599586 62.322628 54.515474 7.103229 -178.985992 57.076703 179.672574 -27.093654 17.252418 -4.592444 0.654088 -1.219370 -0.000000 0.000000 0.000000 0.000000 0.000000 0.000000 0.000000 
2.266022 16.439414 0.498955 173.908753 -54.436749 -154.696528 -10.691200 1.440384 -2.702320 -3.950191 29.000732 -20.620335 -1.911983 0.012487 17.717688 4.168678 31.563521 4.422467 7.560400 -0.000001 -61.076100 10.758401 0.220990 7.036267 -12.001129 9.917652 -48.035908 -0.011965 -2.024050 35.789013 0.017417 2.353759 -3.048310 0.089501 0.000000 -80.786900 -2.202077 -1.681308 -5.257587 -0.817213 -1.688356 -3.950486 -5.206982 -1.687382 -0.379394 11.005164 -6.672130 -5.834271 -2.118408 -0.182380 0.455080 0.000000 0.000000 0.000000 6.720418 10.606783 3.215323 -46.530834 26.183633 -13.465255 -178.830099 -66.854721 179.988948 4.854749 -15.054129 -0.684831 -0.134219 0.626130 -0.000000 0.000000 0.000000 0.000000 0.000000 0.000000 0.000000 4.636469 0.146929 -3.425076 59.912102 55.346146 6.400655 -178.921604 57.270495 179.672830 -27.242874 16.791298 -4.496672 0.658696 -1.200038 -0.000000 0.000000 0.000000 0.000000 0.000000 0.000000 0.000000 
2.215459 16.496974 0.503622 175.912679 -51.554865 -155.561413 -10.923512 1.451030 -2.759379 -3.631962 29.905622 -20.169134 -1.928247 -0.050515 16.424238 4.237567 32.381107 5.435031 8.396899 0.000000 -60.730500 10.373680 -0.035821 7.577906 -11.708837 11.983538 -48.768222 0.087381 -1.788979 33.116701 0.239602 3.261291 -1.267090 0.238299 -0.000000 -81.111400 -1.159807 -1.467667 -5.653704 -0.611924 -1.580866 -3.946878 -5.164444 -1.580603 0.068409 11.307494 -7.270242 -6.449226 -1.981082 -0.164611 0.292032 0.000000 0.000000 0.000000 7.378909 11.442591 3.371524 -45.549625 28.890997 -13.022319 -178.799803 -68.258756 179.999096 3.619540 -14.803002 -0.502486 -0.117231 0.583157 -0.000000 0.000000 0.000000 0.000000 0.000000 0.000000 0.000000 4.930661 -0.289092 -3.238540 57.499487 56.133332 5.636691 -178.833839 57.500195 179.672165 -27.409660 16.397245 -4.419622 0.660267 -1.182346 -0.000000 0.000000 0.000000 0.000000 0.000000 0.000000 0.000000 
